<svg width="142" height="29" viewBox="0 0 142 29" fill="none" xmlns="http://www.w3.org/2000/svg">
<g clip-path="url(#clip0)">
<path d="M0 0.864348V15.9287C0 16.4226 0.30643 16.793 0.674147 16.793H10.5412C10.9089 16.793 11.2154 17.1635 11.2154 17.6574V20.0652C11.2154 20.5591 10.9089 20.9296 10.5412 20.9296H0.674147C0.30643 20.9296 0 21.3 0 21.7939V27.5357C0 28.0296 0.30643 28.4 0.674147 28.4H21.8179C22.1856 28.4 22.492 28.0296 22.492 27.5357V14.9409C22.492 14.447 22.1856 14.0765 21.8179 14.0765H11.9508C11.5831 14.0765 11.2767 13.7061 11.2767 13.2122V10.8043C11.2767 10.3104 11.5831 9.94 11.9508 9.94H21.8179C22.1856 9.94 22.492 9.56956 22.492 9.07565V8.02609C22.492 7.77913 22.4307 7.59391 22.3082 7.4087L16.6698 0.246957C16.486 0.0617391 16.3021 0 16.1795 0H0.674147C0.30643 0 0 0.370435 0 0.864348Z" fill="url(#paint0_linear)"/>
<mask id="mask0" mask-type="alpha" maskUnits="userSpaceOnUse" x="0" y="0" width="29" height="29">
<path d="M0 0.864348V15.9287C0 16.4226 0.367718 16.793 0.858007 16.793H13.2378C13.7281 16.793 14.0958 17.1635 14.0958 17.6574V20.0652C14.0958 20.5591 13.7281 20.9296 13.2378 20.9296H0.858007C0.367718 20.9296 0 21.3 0 21.7939V27.5357C0 28.0296 0.367718 28.4 0.858007 28.4H27.3336C27.8239 28.4 28.1916 28.0296 28.1916 27.5357V14.9409C28.1916 14.447 27.8239 14.0765 27.3336 14.0765H14.9538C14.4635 14.0765 14.0958 13.7061 14.0958 13.2122V10.8043C14.0958 10.3104 14.4635 9.94 14.9538 9.94H27.3336C27.8239 9.94 28.1916 9.56956 28.1916 9.07565V8.02609C28.1916 7.77913 28.1303 7.59391 27.9465 7.4087L20.8373 0.246957C20.6534 0.0617391 20.4696 0 20.2244 0H0.858007C0.367718 0 0 0.370435 0 0.864348Z" fill="white"/>
</mask>
<g mask="url(#mask0)">
<g opacity="0.4">
<g opacity="0.4">
<path opacity="0.4" d="M10.4799 20.9309C10.4799 20.9309 0 21.7952 0 24.8822V21.7952C0 21.3013 0.367718 20.9309 0.858007 20.9309H10.4799Z" fill="black"/>
<g opacity="0.4">
<path opacity="0.4" d="M12.4465 14.0778C12.4465 14.0778 22.4974 15.0039 22.4974 17.6587V14.8804C22.4974 14.3865 22.1297 14.0161 21.6394 14.0161L12.4465 14.0778Z" fill="black"/>
</g>
</g>
</g>
</g>
<path d="M33.8913 10.3104L32.2365 9.3226C31.1947 8.7052 30.4592 8.08781 30.0302 7.47042C29.6012 6.85303 29.3561 6.1739 29.3561 5.37129C29.3561 4.19825 29.7851 3.21042 30.5818 2.46955C31.3785 1.72868 32.4817 1.35825 33.7687 1.35825C34.9944 1.35825 36.1588 1.72868 37.2007 2.40781V4.87738C36.0976 3.82781 34.9331 3.3339 33.7074 3.3339C33.0332 3.3339 32.4204 3.51912 31.9914 3.82781C31.5624 4.13651 31.3172 4.56868 31.3172 5.0626C31.3172 5.49477 31.5011 5.92694 31.8075 6.35912C32.114 6.72955 32.6655 7.16173 33.401 7.5939L35.0557 8.58173C36.8943 9.69303 37.8136 11.0513 37.8136 12.78C37.8136 14.0148 37.3846 15.0026 36.5878 15.7435C35.7911 16.4843 34.7493 16.8548 33.4622 16.8548C31.9914 16.8548 30.6431 16.4226 29.4174 15.4965V12.7182C30.5818 14.2 31.9301 14.9409 33.4622 14.9409C34.1364 14.9409 34.688 14.7556 35.117 14.3852C35.546 14.0148 35.7911 13.5209 35.7911 12.9652C35.8524 11.9774 35.1783 11.113 33.8913 10.3104ZM47.1291 1.29651C49.4579 1.29651 51.3578 2.03738 52.9512 3.51912C54.4834 5.00086 55.2801 6.85303 55.2801 9.07564C55.2801 11.2982 54.4834 13.1504 52.9512 14.6322C51.4191 16.1139 49.4579 16.8548 47.0678 16.8548C44.8002 16.8548 42.9003 16.1139 41.4294 14.6322C39.9586 13.1504 39.1619 11.36 39.1619 9.13738C39.1619 6.85303 39.8973 5.00086 41.4294 3.51912C42.9003 2.03738 44.8002 1.29651 47.1291 1.29651ZM47.1903 3.3339C45.4743 3.3339 44.0648 3.88955 42.9616 4.93912C41.8585 6.05042 41.3069 7.40868 41.3069 9.07564C41.3069 10.6809 41.8585 12.0391 42.9616 13.1504C44.0648 14.2617 45.4743 14.7556 47.1291 14.7556C48.7838 14.7556 50.1934 14.2 51.2965 13.0887C52.3997 11.9774 52.9512 10.6191 52.9512 8.95216C52.9512 7.34694 52.3997 5.98868 51.2965 4.93912C50.2547 3.88955 48.8451 3.3339 47.1903 3.3339ZM67.8438 1.54347H69.9888V10.1252C69.9888 11.2982 69.9275 12.1626 69.7436 12.78C69.5598 13.3974 69.3759 13.8913 69.1308 14.2617C68.8856 14.6322 68.5792 15.0026 68.2115 15.3113C67.0471 16.3609 65.4536 16.8548 63.5537 16.8548C61.5926 16.8548 59.9992 16.3609 58.8347 15.3113C58.467 15.0026 58.1606 14.6322 57.9154 14.2617C57.6703 13.8913 57.4864 13.3974 57.3026 12.8417C57.1187 12.2861 57.0574 11.36 57.0574 10.1869V1.54347H59.2024V10.1252C59.2024 11.5452 59.3863 12.533 59.6927 13.0887C59.9992 13.6443 60.4894 14.0765 61.1636 14.4469C61.8377 14.7556 62.5732 14.9409 63.4925 14.9409C64.7795 14.9409 65.8213 14.6322 66.6181 13.953C67.0471 13.5826 67.3535 13.1504 67.5373 12.6565C67.7212 12.1626 67.8438 11.2982 67.8438 10.1252V1.54347ZM72.5628 1.54347H74.7078V14.6939H81.4493V16.6696H72.5628V1.54347ZM95.9741 6.35912C95.9741 6.91477 95.8515 7.47042 95.6677 7.96433C95.4838 8.51999 95.1774 9.0139 94.7484 9.44607C94.3194 9.87825 93.7678 10.2487 93.0324 10.5574C92.297 10.8661 91.4389 10.9896 90.5196 10.9896H87.5779V16.6696H83.104V1.66694H90.5196C91.5002 1.66694 92.3582 1.79042 93.0324 2.09912C93.7678 2.40781 94.3194 2.77825 94.7484 3.21042C95.1774 3.6426 95.4838 4.19825 95.6677 4.69216C95.8515 5.18607 95.9741 5.80347 95.9741 6.35912ZM91.3777 6.35912C91.3777 5.61825 91.1938 5.18607 90.7648 4.87738C90.3358 4.63042 89.6004 4.50694 88.4972 4.50694H87.5779V8.14955H88.5585C89.2939 8.14955 89.9068 8.08781 90.2745 8.02607C90.7035 7.9026 90.9487 7.77912 91.1325 7.53216C91.3164 7.22347 91.3777 6.85303 91.3777 6.35912ZM112.46 16.6696H107.864L106.638 13.6443H100.142L98.9158 16.6696H94.3807L100.938 1.66694H105.902L112.46 16.6696ZM105.657 10.9896L103.451 5.49477L101.245 10.9896H105.657ZM127.72 15.5582C127.414 15.6817 127.107 15.8052 126.924 15.8669C126.678 15.9287 126.495 15.9904 126.249 16.1139C126.066 16.1756 125.759 16.2374 125.33 16.3609C124.656 16.5461 123.982 16.6696 123.308 16.7313C122.634 16.793 121.898 16.8548 121.163 16.8548C119.631 16.8548 118.282 16.6078 116.995 16.0522C115.708 15.4965 114.666 14.6322 113.931 13.4591C113.134 12.2861 112.767 10.8661 112.767 9.13738C112.767 8.02607 112.95 6.97651 113.379 5.92694C113.747 4.87738 114.36 4.01303 115.218 3.39564C115.892 2.83999 116.566 2.46955 117.24 2.16086C117.915 1.9139 118.589 1.66694 119.263 1.6052C119.937 1.54347 120.672 1.48173 121.469 1.48173C122.756 1.48173 123.859 1.6052 124.717 1.79042C125.575 1.97564 126.495 2.2226 127.536 2.59303V6.1739C126.862 5.80347 126.127 5.43303 125.391 5.18607C124.656 4.93912 123.675 4.81564 122.572 4.81564C121.285 4.81564 120.243 5.0626 119.447 5.55651C118.65 6.05042 118.098 6.66781 117.853 7.34694C117.547 8.02607 117.424 8.7052 117.424 9.3226C117.424 10.0635 117.608 10.8043 117.976 11.4217C118.344 12.0391 118.834 12.5948 119.569 12.9652C120.305 13.3356 121.163 13.5209 122.143 13.5209C122.695 13.5209 123.308 13.4591 123.982 13.2739V11.4835H121.959V8.45825H127.904V15.5582H127.72ZM142 16.6696H130.785V1.66694H141.816V4.69216H135.259V7.40868H141.571V10.4339H135.32V13.6443H142.061V16.6696H142Z" fill="#666667"/>
<path d="M64.2892 22.4122H64.9633V27.0426H64.2892V22.4122Z" fill="#989898"/>
<path d="M65.5762 22.4113H69.4372V23.0287H67.8438V27.1035H67.1696V23.0287H65.5762V22.4113Z" fill="#989898"/>
<path d="M73.0531 25.0661L72.5628 24.7574C72.2564 24.5722 72.0113 24.3869 71.8887 24.2017C71.7661 24.0165 71.7048 23.7695 71.7048 23.5843C71.7048 23.2139 71.8274 22.9052 72.0725 22.72C72.3177 22.473 72.6241 22.3495 73.0531 22.3495C73.4208 22.3495 73.7886 22.473 74.095 22.6582V23.3991C73.7886 23.0904 73.4208 22.9052 73.0531 22.9052C72.808 22.9052 72.6854 22.9669 72.5016 23.0287C72.379 23.1522 72.3177 23.2756 72.3177 23.3991C72.3177 23.5226 72.379 23.6461 72.4403 23.7695C72.5628 23.893 72.6854 24.0165 72.9306 24.14L73.4208 24.4487C73.9724 24.7574 74.2788 25.1895 74.2788 25.7452C74.2788 26.1156 74.1563 26.4243 73.9111 26.6713C73.666 26.9182 73.3596 27.0417 72.9306 27.0417C72.5016 27.0417 72.0726 26.9182 71.7048 26.6095V25.7452C72.0726 26.1774 72.5016 26.4243 72.9306 26.4243C73.1144 26.4243 73.2983 26.3626 73.4208 26.2391C73.5434 26.1156 73.6047 25.9922 73.6047 25.8069C73.666 25.6217 73.4208 25.313 73.0531 25.0661Z" fill="#989898"/>
<path d="M77.2205 22.3495C77.956 22.3495 78.5075 22.5965 78.9978 23.0287C79.4881 23.4609 79.7333 24.0782 79.7333 24.7574C79.7333 25.4365 79.4881 25.9922 78.9978 26.4243C78.5075 26.8565 77.8947 27.1035 77.2205 27.1035C76.5464 27.1035 75.9335 26.8565 75.5045 26.4243C75.0142 25.9922 74.8304 25.4365 74.8304 24.7574C74.8304 24.0782 75.0755 23.5226 75.5045 23.0287C75.9335 22.5348 76.5464 22.3495 77.2205 22.3495ZM77.2818 22.9669C76.7302 22.9669 76.3012 23.1522 75.9948 23.4609C75.6271 23.7695 75.5045 24.2017 75.5045 24.7574C75.5045 25.2513 75.6884 25.6835 75.9948 25.9922C76.3625 26.3008 76.7302 26.4861 77.2818 26.4861C77.7721 26.4861 78.2011 26.3008 78.5688 25.9922C78.9365 25.6835 79.0591 25.2513 79.0591 24.7574C79.0591 24.2635 78.8753 23.8313 78.5688 23.5226C78.2011 23.1522 77.7721 22.9669 77.2818 22.9669Z" fill="#989898"/>
<path d="M80.53 22.4113H81.2042V26.4243H83.2879V27.0417H80.53V22.4113Z" fill="#989898"/>
<path d="M87.0264 22.4113H87.7005V25.0661C87.7005 25.4365 87.7005 25.6835 87.6392 25.8687C87.5779 26.0539 87.5167 26.1774 87.4554 26.3009C87.3941 26.4243 87.2715 26.5478 87.1489 26.6095C86.7812 26.9182 86.2909 27.1035 85.7394 27.1035C85.1265 27.1035 84.6362 26.9182 84.2685 26.6095C84.1459 26.4861 84.0846 26.4243 83.9621 26.3009C83.9008 26.1774 83.8395 26.0539 83.7782 25.8687C83.7169 25.6835 83.7169 25.4365 83.7169 25.0661V22.4113H84.3911V25.0661C84.3911 25.4982 84.4523 25.8069 84.5136 25.9922C84.6362 26.1774 84.7588 26.3009 84.9426 26.4243C85.1265 26.5478 85.3716 26.5478 85.6781 26.5478C86.0458 26.5478 86.4135 26.4243 86.6586 26.2391C86.7812 26.1156 86.9038 25.9922 86.9651 25.8687C87.0264 25.7452 87.0264 25.4365 87.0264 25.0661V22.4113Z" fill="#989898"/>
<path d="M88.2521 22.4113H92.1131V23.0287H90.5197V27.1035H89.8455V23.0287H88.2521V22.4113Z" fill="#989898"/>
<path d="M92.726 22.4113H93.4001V27.0417H92.726V22.4113Z" fill="#989898"/>
<path d="M96.6483 22.3495C97.3837 22.3495 97.9353 22.5965 98.4256 23.0287C98.9159 23.4609 99.161 24.0782 99.161 24.7574C99.161 25.4365 98.9159 25.9922 98.4256 26.4243C97.9353 26.8565 97.3224 27.1035 96.6483 27.1035C95.9741 27.1035 95.3613 26.8565 94.9323 26.4243C94.442 25.9922 94.2581 25.4365 94.2581 24.7574C94.2581 24.0782 94.5033 23.5226 94.9323 23.0287C95.3613 22.5348 95.9128 22.3495 96.6483 22.3495ZM96.6483 22.9669C96.0967 22.9669 95.6677 23.1522 95.3613 23.4609C94.9936 23.7695 94.871 24.2017 94.871 24.7574C94.871 25.2513 95.0548 25.6835 95.3613 25.9922C95.729 26.3008 96.0967 26.4861 96.6483 26.4861C97.1386 26.4861 97.5676 26.3008 97.9353 25.9922C98.303 25.6835 98.4256 25.2513 98.4256 24.7574C98.4256 24.2635 98.2417 23.8313 97.9353 23.5226C97.5676 23.1522 97.1386 22.9669 96.6483 22.9669Z" fill="#989898"/>
<path d="M103.574 22.4113H104.186V27.0417H103.635L100.571 23.4609V27.0417H99.9578V22.4113H100.509L103.635 25.9922V22.4113H103.574Z" fill="#989898"/>
<path d="M106.331 25.0661L105.841 24.7574C105.535 24.5722 105.29 24.3869 105.167 24.2017C105.044 24.0165 104.983 23.7695 104.983 23.5843C104.983 23.2139 105.106 22.9052 105.351 22.72C105.596 22.473 105.902 22.3495 106.331 22.3495C106.699 22.3495 107.067 22.473 107.373 22.6582V23.3991C107.067 23.0904 106.699 22.9052 106.331 22.9052C106.086 22.9052 105.964 22.9669 105.78 23.0287C105.657 23.1522 105.596 23.2756 105.596 23.3991C105.596 23.5226 105.657 23.6461 105.719 23.7695C105.841 23.893 105.964 24.0165 106.209 24.14L106.699 24.4487C107.251 24.7574 107.557 25.1895 107.557 25.7452C107.557 26.1156 107.435 26.4243 107.189 26.6713C106.944 26.9182 106.638 27.0417 106.209 27.0417C105.78 27.0417 105.351 26.9182 104.983 26.6095V25.7452C105.351 26.1774 105.78 26.4243 106.209 26.4243C106.393 26.4243 106.577 26.3626 106.699 26.2391C106.822 26.1156 106.883 25.9922 106.883 25.8069C106.944 25.6217 106.76 25.313 106.331 25.0661Z" fill="#989898"/>
</g>
<defs>
<linearGradient id="paint0_linear" x1="-2.92066" y1="2.99465" x2="22.5719" y2="27.8102" gradientUnits="userSpaceOnUse">
<stop stop-color="#50B965"/>
<stop offset="1" stop-color="#374C9F"/>
</linearGradient>
<clipPath id="clip0">
<rect width="142" height="28.4" fill="white"/>
</clipPath>
</defs>
</svg>
